<?xml version="1.0" standalone="no"?>
<!DOCTYPE svg PUBLIC "-//W3C//DTD SVG 20010904//EN"
 "http://www.w3.org/TR/2001/REC-SVG-20010904/DTD/svg10.dtd">
<svg version="1.0" xmlns="http://www.w3.org/2000/svg"
 width="700.000000pt" height="700.000000pt" viewBox="0 0 700.000000 700.000000"
 preserveAspectRatio="xMidYMid meet">
<metadata>
Created by potrace 1.14, written by Peter Selinger 2001-2017
</metadata>
<g transform="translate(0.000000,700.000000) scale(0.100000,-0.100000)"
fill="#000000" stroke="none">
<path d="M435 6986 c-165 -40 -300 -149 -374 -300 -22 -44 -44 -103 -50 -131
-14 -69 -14 -6027 0 -6105 18 -95 81 -211 155 -284 76 -75 193 -138 288 -155
81 -15 6017 -14 6096 0 90 17 210 80 278 148 67 66 103 122 141 220 l26 66 3
3005 c2 2199 0 3025 -8 3080 -27 175 -143 332 -303 409 -45 22 -107 44 -137
50 -86 16 -6049 13 -6115 -3z"/>
</g>
</svg>
